<svg xmlns="http://www.w3.org/2000/svg" width="512" height="512" viewBox="0 0 512 512" role="img" aria-label="Radio VHF et carte marine">
  <defs>
    <linearGradient id="sea" x1="0" y1="0" x2="1" y2="1"><stop offset="0" stop-color="#071c28"/><stop offset="1" stop-color="#0a3341"/></linearGradient>
    <clipPath id="chart"><rect x="86" y="130" width="340" height="294" rx="34"/></clipPath>
  </defs>
  <rect width="512" height="512" fill="url(#sea)"/>
  <g clip-path="url(#chart)" fill="none" stroke="#2b9f9b" stroke-width="7" opacity=".62">
    <path d="M31 354c74-104 126-76 178-138 44-53 118-73 185-29 48 31 91 17 132-12"/>
    <path d="M25 395c79-94 149-86 209-145 62-61 119-32 160-4 49 33 88 32 147 4"/>
    <path d="M10 440c100-74 151-72 236-131 73-51 119-16 155 18 35 34 88 44 146 22"/>
    <path d="M37 269c76-103 115-84 159-151 27-42 86-71 144-46"/>
  </g>
  <rect x="86" y="130" width="340" height="294" rx="34" fill="none" stroke="#65ddbd" stroke-width="13"/>
  <path d="M256 137v280M92 277h328" stroke="#c9f7ea" stroke-opacity=".28" stroke-width="5"/>
  <path d="M260 175l-29 92 29-15 29 15z" fill="#f6fffc"/>
  <path d="M260 252l-29 15 29 53 29-53z" fill="#1ad3a0"/>
  <circle cx="260" cy="270" r="9" fill="#092c37" stroke="#f6fffc" stroke-width="4"/>
  <g stroke="#f6fffc" fill="none" stroke-linecap="round">
    <path d="M105 138V80" stroke-width="14"/>
    <circle cx="105" cy="74" r="10" fill="#f6fffc" stroke="none"/>
    <path d="M130 105c18 8 29 25 32 43" stroke-width="12"/>
    <path d="M139 75c31 15 50 41 57 70" stroke-width="12"/>
  </g>
  <circle cx="371" cy="354" r="22" fill="#f6fffc"/>
  <path d="M371 317v-35M371 391v35M334 354h-35M408 354h35" stroke="#f6fffc" stroke-width="8" stroke-linecap="round"/>
</svg>
